<svg width="48" height="56" viewBox="0 0 48 56" fill="none" xmlns="http://www.w3.org/2000/svg">
<path fill-rule="evenodd" clip-rule="evenodd" d="M23.3008 3.03389C22.8298 2.92995 22.3185 3.0651 21.9525 3.43934L7.42968 18.2886C6.85677 18.8744 6.85677 19.8241 7.42968 20.4099C8.00259 20.9957 8.93146 20.9957 9.50437 20.4099L21.4619 8.18361V37.533C21.4619 38.3432 22.1187 39 22.9289 39C23.7392 39 24.396 38.3432 24.396 37.533V8.04226L36.4961 20.4143C37.069 21.0001 37.9978 21.0001 38.5708 20.4143C39.1437 19.8285 39.1437 18.8788 38.5708 18.293L24.0479 3.44375C23.8357 3.22672 23.5745 3.0901 23.3008 3.03389ZM3.5 48C2.67157 48 2 48.6716 2 49.5C2 50.3284 2.67157 51 3.5 51H42.5C43.3284 51 44 50.3284 44 49.5C44 48.6716 43.3284 48 42.5 48H3.5Z" fill="black"/>
</svg>
